<svg width="5590" height="1000" viewBox="0 0 5590 1000" fill="none" xmlns="http://www.w3.org/2000/svg">
<g clip-path="url(#clip0_863_642)">
<path d="M1417 407V119H1536C1538.8 119 1542.4 119.133 1546.8 119.4C1551.2 119.533 1555.27 119.933 1559 120.6C1575.67 123.133 1589.4 128.667 1600.2 137.2C1611.13 145.733 1619.2 156.533 1624.4 169.6C1629.73 182.533 1632.4 196.933 1632.4 212.8C1632.4 228.533 1629.73 242.933 1624.4 256C1619.07 268.933 1610.93 279.667 1600 288.2C1589.2 296.733 1575.53 302.267 1559 304.8C1555.27 305.333 1551.13 305.733 1546.6 306C1542.2 306.267 1538.67 306.4 1536 306.4H1465.2V407H1417ZM1465.2 261.4H1534C1536.67 261.4 1539.67 261.267 1543 261C1546.33 260.733 1549.4 260.2 1552.2 259.4C1560.2 257.4 1566.47 253.867 1571 248.8C1575.67 243.733 1578.93 238 1580.8 231.6C1582.8 225.2 1583.8 218.933 1583.8 212.8C1583.8 206.667 1582.8 200.4 1580.8 194C1578.93 187.467 1575.67 181.667 1571 176.6C1566.47 171.533 1560.2 168 1552.2 166C1549.4 165.2 1546.33 164.733 1543 164.6C1539.67 164.333 1536.67 164.2 1534 164.2H1465.2V261.4ZM1767.15 413C1745.29 413 1726.09 408.267 1709.55 398.8C1693.02 389.333 1680.09 376.2 1670.75 359.4C1661.55 342.6 1656.95 323.267 1656.95 301.4C1656.95 277.8 1661.49 257.333 1670.55 240C1679.62 222.533 1692.22 209 1708.35 199.4C1724.49 189.8 1743.15 185 1764.35 185C1786.75 185 1805.75 190.267 1821.35 200.8C1837.09 211.2 1848.75 225.933 1856.35 245C1863.95 264.067 1866.82 286.533 1864.95 312.4H1817.15V294.8C1817.02 271.333 1812.89 254.2 1804.75 243.4C1796.62 232.6 1783.82 227.2 1766.35 227.2C1746.62 227.2 1731.95 233.333 1722.35 245.6C1712.75 257.733 1707.95 275.533 1707.95 299C1707.95 320.867 1712.75 337.8 1722.35 349.8C1731.95 361.8 1745.95 367.8 1764.35 367.8C1776.22 367.8 1786.42 365.2 1794.95 360C1803.62 354.667 1810.29 347 1814.95 337L1862.55 351.4C1854.29 370.867 1841.49 386 1824.15 396.8C1806.95 407.6 1787.95 413 1767.15 413ZM1692.75 312.4V276H1841.35V312.4H1692.75ZM2036.18 407C2021.91 409.667 2007.91 410.8 1994.18 410.4C1980.58 410.133 1968.38 407.667 1957.58 403C1946.78 398.2 1938.58 390.667 1932.98 380.4C1928.04 371.067 1925.44 361.533 1925.18 351.8C1924.91 342.067 1924.78 331.067 1924.78 318.8V131H1972.78V316C1972.78 324.667 1972.84 332.267 1972.98 338.8C1973.24 345.333 1974.64 350.667 1977.18 354.8C1981.98 362.8 1989.64 367.267 2000.18 368.2C2010.71 369.133 2022.71 368.6 2036.18 366.6V407ZM1885.58 228.8V191H2036.18V228.8H1885.58ZM2169.89 413C2148.02 413 2128.82 408.267 2112.29 398.8C2095.75 389.333 2082.82 376.2 2073.49 359.4C2064.29 342.6 2059.69 323.267 2059.69 301.4C2059.69 277.8 2064.22 257.333 2073.29 240C2082.35 222.533 2094.95 209 2111.09 199.4C2127.22 189.8 2145.89 185 2167.09 185C2189.49 185 2208.49 190.267 2224.09 200.8C2239.82 211.2 2251.49 225.933 2259.09 245C2266.69 264.067 2269.55 286.533 2267.69 312.4H2219.89V294.8C2219.75 271.333 2215.62 254.2 2207.49 243.4C2199.35 232.6 2186.55 227.2 2169.09 227.2C2149.35 227.2 2134.69 233.333 2125.09 245.6C2115.49 257.733 2110.69 275.533 2110.69 299C2110.69 320.867 2115.49 337.8 2125.09 349.8C2134.69 361.8 2148.69 367.8 2167.09 367.8C2178.95 367.8 2189.15 365.2 2197.69 360C2206.35 354.667 2213.02 347 2217.69 337L2265.29 351.4C2257.02 370.867 2244.22 386 2226.89 396.8C2209.69 407.6 2190.69 413 2169.89 413ZM2095.49 312.4V276H2244.09V312.4H2095.49ZM2312.31 407V191H2354.91V243.6L2349.71 236.8C2352.38 229.6 2355.91 223.067 2360.31 217.2C2364.85 211.2 2370.25 206.267 2376.51 202.4C2381.85 198.8 2387.71 196 2394.11 194C2400.65 191.867 2407.31 190.6 2414.11 190.2C2420.91 189.667 2427.51 189.933 2433.91 191V236C2427.51 234.133 2420.11 233.533 2411.71 234.2C2403.45 234.867 2395.98 237.2 2389.31 241.2C2382.65 244.8 2377.18 249.4 2372.91 255C2368.78 260.6 2365.71 267 2363.71 274.2C2361.71 281.267 2360.71 288.933 2360.71 297.2V407H2312.31ZM2552.16 407V119H2600.36V252.6L2715.36 119H2774.56L2650.76 260.2L2782.96 407H2721.76L2600.36 272.6V407H2552.16ZM2878.08 413.2C2862.08 413.2 2848.88 410.533 2838.48 405.2C2828.08 399.867 2819.81 393.067 2813.68 384.8C2807.54 376.533 2803.01 367.733 2800.08 358.4C2797.14 349.067 2795.21 340.267 2794.28 332C2793.48 323.6 2793.08 316.8 2793.08 311.6V191H2841.88V295C2841.88 301.667 2842.34 309.2 2843.28 317.6C2844.21 325.867 2846.34 333.867 2849.68 341.6C2853.14 349.2 2858.21 355.467 2864.88 360.4C2871.68 365.333 2880.81 367.8 2892.28 367.8C2898.41 367.8 2904.48 366.8 2910.48 364.8C2916.48 362.8 2921.88 359.4 2926.68 354.6C2931.61 349.667 2935.54 342.933 2938.48 334.4C2941.41 325.867 2942.88 315.067 2942.88 302L2971.48 314.2C2971.48 332.6 2967.88 349.267 2960.68 364.2C2953.61 379.133 2943.14 391.067 2929.28 400C2915.41 408.8 2898.34 413.2 2878.08 413.2ZM2948.68 407V340H2942.88V191H2991.28V407H2948.68ZM3196.87 407V303C3196.87 296.2 3196.4 288.667 3195.47 280.4C3194.54 272.133 3192.34 264.2 3188.87 256.6C3185.54 248.867 3180.47 242.533 3173.67 237.6C3167 232.667 3157.94 230.2 3146.47 230.2C3140.34 230.2 3134.27 231.2 3128.27 233.2C3122.27 235.2 3116.8 238.667 3111.87 243.6C3107.07 248.4 3103.2 255.067 3100.27 263.6C3097.34 272 3095.87 282.8 3095.87 296L3067.27 283.8C3067.27 265.4 3070.8 248.733 3077.87 233.8C3085.07 218.867 3095.6 207 3109.47 198.2C3123.34 189.267 3140.4 184.8 3160.67 184.8C3176.67 184.8 3189.87 187.467 3200.27 192.8C3210.67 198.133 3218.94 204.933 3225.07 213.2C3231.2 221.467 3235.74 230.267 3238.67 239.6C3241.6 248.933 3243.47 257.8 3244.27 266.2C3245.2 274.467 3245.67 281.2 3245.67 286.4V407H3196.87ZM3047.07 407V119H3090.07V270.6H3095.87V407H3047.07ZM3557.26 407V275.8C3557.26 261 3553.59 249.467 3546.26 241.2C3538.93 232.8 3528.99 228.6 3516.46 228.6C3508.73 228.6 3501.79 230.4 3495.66 234C3489.53 237.467 3484.66 242.667 3481.06 249.6C3477.46 256.4 3475.66 264.533 3475.66 274L3454.26 261.4C3454.13 246.467 3457.46 233.333 3464.26 222C3471.19 210.533 3480.53 201.6 3492.26 195.2C3503.99 188.8 3517.06 185.6 3531.46 185.6C3555.33 185.6 3573.59 192.8 3586.26 207.2C3599.06 221.467 3605.46 240.267 3605.46 263.6V407H3557.26ZM3297.46 407V191H3340.06V258H3346.06V407H3297.46ZM3427.66 407V276.4C3427.66 261.333 3423.99 249.6 3416.66 241.2C3409.33 232.8 3399.33 228.6 3386.66 228.6C3374.39 228.6 3364.53 232.8 3357.06 241.2C3349.73 249.6 3346.06 260.533 3346.06 274L3324.46 259.6C3324.46 245.6 3327.93 233 3334.86 221.8C3341.79 210.6 3351.13 201.8 3362.86 195.4C3374.73 188.867 3387.99 185.6 3402.66 185.6C3418.79 185.6 3432.26 189.067 3443.06 196C3453.99 202.8 3462.13 212.133 3467.46 224C3472.93 235.733 3475.66 249 3475.66 263.8V407H3427.66ZM3718.03 413C3702.43 413 3689.23 410.067 3678.43 404.2C3667.63 398.2 3659.43 390.267 3653.83 380.4C3648.36 370.533 3645.63 359.667 3645.63 347.8C3645.63 337.4 3647.36 328.067 3650.83 319.8C3654.29 311.4 3659.63 304.2 3666.83 298.2C3674.03 292.067 3683.36 287.067 3694.83 283.2C3703.49 280.4 3713.63 277.867 3725.23 275.6C3736.96 273.333 3749.63 271.267 3763.23 269.4C3776.96 267.4 3791.29 265.267 3806.23 263L3789.03 272.8C3789.16 257.867 3785.83 246.867 3779.03 239.8C3772.23 232.733 3760.76 229.2 3744.63 229.2C3734.89 229.2 3725.49 231.467 3716.43 236C3707.36 240.533 3701.03 248.333 3697.43 259.4L3653.43 245.6C3658.76 227.333 3668.89 212.667 3683.83 201.6C3698.89 190.533 3719.16 185 3744.63 185C3763.83 185 3780.69 188.133 3795.23 194.4C3809.89 200.667 3820.76 210.933 3827.83 225.2C3831.69 232.8 3834.03 240.6 3834.83 248.6C3835.63 256.467 3836.03 265.067 3836.03 274.4V407H3793.83V360.2L3800.83 367.8C3791.09 383.4 3779.69 394.867 3766.63 402.2C3753.69 409.4 3737.49 413 3718.03 413ZM3727.63 374.6C3738.56 374.6 3747.89 372.667 3755.63 368.8C3763.36 364.933 3769.49 360.2 3774.03 354.6C3778.69 349 3781.83 343.733 3783.43 338.8C3785.96 332.667 3787.36 325.667 3787.63 317.8C3788.03 309.8 3788.23 303.333 3788.23 298.4L3803.03 302.8C3788.49 305.067 3776.03 307.067 3765.63 308.8C3755.23 310.533 3746.29 312.2 3738.83 313.8C3731.36 315.267 3724.76 316.933 3719.03 318.8C3713.43 320.8 3708.69 323.133 3704.83 325.8C3700.96 328.467 3697.96 331.533 3695.83 335C3693.83 338.467 3692.83 342.533 3692.83 347.2C3692.83 352.533 3694.16 357.267 3696.83 361.4C3699.49 365.4 3703.36 368.6 3708.43 371C3713.63 373.4 3720.03 374.6 3727.63 374.6ZM4037.49 407V303C4037.49 296.2 4037.03 288.667 4036.09 280.4C4035.16 272.133 4032.96 264.2 4029.49 256.6C4026.16 248.867 4021.09 242.533 4014.29 237.6C4007.63 232.667 3998.56 230.2 3987.09 230.2C3980.96 230.2 3974.89 231.2 3968.89 233.2C3962.89 235.2 3957.43 238.667 3952.49 243.6C3947.69 248.4 3943.83 255.067 3940.89 263.6C3937.96 272 3936.49 282.8 3936.49 296L3907.89 283.8C3907.89 265.4 3911.43 248.733 3918.49 233.8C3925.69 218.867 3936.23 207 3950.09 198.2C3963.96 189.267 3981.03 184.8 4001.29 184.8C4017.29 184.8 4030.49 187.467 4040.89 192.8C4051.29 198.133 4059.56 204.933 4065.69 213.2C4071.83 221.467 4076.36 230.267 4079.29 239.6C4082.23 248.933 4084.09 257.8 4084.89 266.2C4085.83 274.467 4086.29 281.2 4086.29 286.4V407H4037.49ZM3887.69 407V191H3930.69V258H3936.49V407H3887.69ZM4287.88 407V303C4287.88 296.2 4287.42 288.667 4286.48 280.4C4285.55 272.133 4283.35 264.2 4279.88 256.6C4276.55 248.867 4271.48 242.533 4264.68 237.6C4258.02 232.667 4248.95 230.2 4237.48 230.2C4231.35 230.2 4225.28 231.2 4219.28 233.2C4213.28 235.2 4207.82 238.667 4202.88 243.6C4198.08 248.4 4194.22 255.067 4191.28 263.6C4188.35 272 4186.88 282.8 4186.88 296L4158.28 283.8C4158.28 265.4 4161.82 248.733 4168.88 233.8C4176.08 218.867 4186.62 207 4200.48 198.2C4214.35 189.267 4231.42 184.8 4251.68 184.8C4267.68 184.8 4280.88 187.467 4291.28 192.8C4301.68 198.133 4309.95 204.933 4316.08 213.2C4322.22 221.467 4326.75 230.267 4329.68 239.6C4332.62 248.933 4334.48 257.8 4335.28 266.2C4336.22 274.467 4336.68 281.2 4336.68 286.4V407H4287.88ZM4138.08 407V191H4181.08V258H4186.88V407H4138.08ZM1504.2 862.4C1486.08 862.4 1469.76 859.4 1455.24 853.4C1440.84 847.28 1428.9 838.64 1419.42 827.48C1410.06 816.32 1403.94 803.06 1401.06 787.7L1428.06 783.2C1432.38 800 1441.5 813.2 1455.42 822.8C1469.34 832.28 1485.96 837.02 1505.28 837.02C1518 837.02 1529.4 835.04 1539.48 831.08C1549.56 827 1557.48 821.24 1563.24 813.8C1569 806.36 1571.88 797.54 1571.88 787.34C1571.88 780.62 1570.68 774.92 1568.28 770.24C1565.88 765.44 1562.7 761.48 1558.74 758.36C1554.78 755.24 1550.46 752.66 1545.78 750.62C1541.1 748.46 1536.54 746.72 1532.1 745.4L1466.4 725.78C1458.48 723.5 1451.16 720.62 1444.44 717.14C1437.72 713.54 1431.84 709.28 1426.8 704.36C1421.88 699.32 1418.04 693.44 1415.28 686.72C1412.52 680 1411.14 672.32 1411.14 663.68C1411.14 649.04 1414.98 636.38 1422.66 625.7C1430.34 615.02 1440.84 606.8 1454.16 601.04C1467.48 595.28 1482.66 592.46 1499.7 592.58C1516.98 592.58 1532.4 595.64 1545.96 601.76C1559.64 607.88 1570.92 616.64 1579.8 628.04C1588.68 639.32 1594.56 652.7 1597.44 668.18L1569.72 673.22C1567.92 661.94 1563.78 652.16 1557.3 643.88C1550.82 635.6 1542.54 629.24 1532.46 624.8C1522.5 620.24 1511.52 617.9 1499.52 617.78C1487.88 617.78 1477.5 619.76 1468.38 623.72C1459.38 627.56 1452.24 632.84 1446.96 639.56C1441.68 646.28 1439.04 653.96 1439.04 662.6C1439.04 671.36 1441.44 678.38 1446.24 683.66C1451.16 688.94 1457.16 693.08 1464.24 696.08C1471.44 699.08 1478.4 701.54 1485.12 703.46L1535.88 718.4C1541.16 719.84 1547.34 721.94 1554.42 724.7C1561.62 727.34 1568.58 731.18 1575.3 736.22C1582.14 741.14 1587.78 747.62 1592.22 755.66C1596.66 763.7 1598.88 773.9 1598.88 786.26C1598.88 798.26 1596.48 809 1591.68 818.48C1587 827.96 1580.34 835.94 1571.7 842.42C1563.18 848.9 1553.16 853.82 1541.64 857.18C1530.24 860.66 1517.76 862.4 1504.2 862.4ZM1718.3 862.4C1699.34 862.4 1682.9 858.2 1668.98 849.8C1655.18 841.4 1644.44 829.58 1636.76 814.34C1629.08 799.1 1625.24 781.22 1625.24 760.7C1625.24 739.46 1629.02 721.1 1636.58 705.62C1644.14 690.14 1654.76 678.2 1668.44 669.8C1682.24 661.4 1698.5 657.2 1717.22 657.2C1736.42 657.2 1752.8 661.64 1766.36 670.52C1779.92 679.28 1790.18 691.88 1797.14 708.32C1804.1 724.76 1807.28 744.38 1806.68 767.18H1779.68V757.82C1779.2 732.62 1773.74 713.6 1763.3 700.76C1752.98 687.92 1737.86 681.5 1717.94 681.5C1697.06 681.5 1681.04 688.28 1669.88 701.84C1658.84 715.4 1653.32 734.72 1653.32 759.8C1653.32 784.28 1658.84 803.3 1669.88 816.86C1681.04 830.3 1696.82 837.02 1717.22 837.02C1731.14 837.02 1743.26 833.84 1753.58 827.48C1764.02 821 1772.24 811.7 1778.24 799.58L1802.9 809.12C1795.22 826.04 1783.88 839.18 1768.88 848.54C1754 857.78 1737.14 862.4 1718.3 862.4ZM1643.96 767.18V745.04H1792.46V767.18H1643.96ZM1981.75 857V757.82C1981.75 747.02 1980.73 737.12 1978.69 728.12C1976.65 719 1973.35 711.08 1968.79 704.36C1964.35 697.52 1958.53 692.24 1951.33 688.52C1944.25 684.8 1935.61 682.94 1925.41 682.94C1916.05 682.94 1907.77 684.56 1900.57 687.8C1893.49 691.04 1887.49 695.72 1882.57 701.84C1877.77 707.84 1874.11 715.16 1871.59 723.8C1869.07 732.44 1867.81 742.28 1867.81 753.32L1849.09 749.18C1849.09 729.26 1852.57 712.52 1859.53 698.96C1866.49 685.4 1876.09 675.14 1888.33 668.18C1900.57 661.22 1914.61 657.74 1930.45 657.74C1942.09 657.74 1952.23 659.54 1960.87 663.14C1969.63 666.74 1977.01 671.6 1983.01 677.72C1989.13 683.84 1994.05 690.86 1997.77 698.78C2001.49 706.58 2004.19 714.92 2005.87 723.8C2007.55 732.56 2008.39 741.32 2008.39 750.08V857H1981.75ZM1841.17 857V662.6H1865.11V710.48H1867.81V857H1841.17ZM2058.7 625.7V596H2085.16V625.7H2058.7ZM2058.7 857V662.6H2085.16V857H2058.7ZM2220.3 862.4C2200.98 862.4 2184.48 858.02 2170.8 849.26C2157.12 840.5 2146.62 828.38 2139.3 812.9C2131.98 797.42 2128.32 779.66 2128.32 759.62C2128.32 739.22 2132.04 721.34 2139.48 705.98C2146.92 690.62 2157.48 678.68 2171.16 670.16C2184.96 661.52 2201.34 657.2 2220.3 657.2C2239.74 657.2 2256.3 661.58 2269.98 670.34C2283.78 678.98 2294.28 691.04 2301.48 706.52C2308.8 721.88 2312.46 739.58 2312.46 759.62C2312.46 780.02 2308.8 797.96 2301.48 813.44C2294.16 828.8 2283.6 840.8 2269.8 849.44C2256 858.08 2239.5 862.4 2220.3 862.4ZM2220.3 837.02C2241.9 837.02 2257.98 829.88 2268.54 815.6C2279.1 801.2 2284.38 782.54 2284.38 759.62C2284.38 736.1 2279.04 717.38 2268.36 703.46C2257.8 689.54 2241.78 682.58 2220.3 682.58C2205.78 682.58 2193.78 685.88 2184.3 692.48C2174.94 698.96 2167.92 708.02 2163.24 719.66C2158.68 731.18 2156.4 744.5 2156.4 759.62C2156.4 783.02 2161.8 801.8 2172.6 815.96C2183.4 830 2199.3 837.02 2220.3 837.02ZM2352.17 857V662.6H2375.93V709.4L2371.25 703.28C2373.41 697.52 2376.23 692.24 2379.71 687.44C2383.19 682.52 2386.97 678.5 2391.05 675.38C2396.09 670.94 2401.97 667.58 2408.69 665.3C2415.41 662.9 2422.19 661.52 2429.03 661.16C2435.87 660.68 2442.11 661.16 2447.75 662.6V687.44C2440.67 685.64 2432.93 685.22 2424.53 686.18C2416.13 687.14 2408.39 690.5 2401.31 696.26C2394.83 701.3 2389.97 707.36 2386.73 714.44C2383.49 721.4 2381.33 728.84 2380.25 736.76C2379.17 744.56 2378.63 752.3 2378.63 759.98V857H2352.17ZM2643.97 862.4C2625.85 862.4 2609.53 859.4 2595.01 853.4C2580.61 847.28 2568.67 838.64 2559.19 827.48C2549.83 816.32 2543.71 803.06 2540.83 787.7L2567.83 783.2C2572.15 800 2581.27 813.2 2595.19 822.8C2609.11 832.28 2625.73 837.02 2645.05 837.02C2657.77 837.02 2669.17 835.04 2679.25 831.08C2689.33 827 2697.25 821.24 2703.01 813.8C2708.77 806.36 2711.65 797.54 2711.65 787.34C2711.65 780.62 2710.45 774.92 2708.05 770.24C2705.65 765.44 2702.47 761.48 2698.51 758.36C2694.55 755.24 2690.23 752.66 2685.55 750.62C2680.87 748.46 2676.31 746.72 2671.87 745.4L2606.17 725.78C2598.25 723.5 2590.93 720.62 2584.21 717.14C2577.49 713.54 2571.61 709.28 2566.57 704.36C2561.65 699.32 2557.81 693.44 2555.05 686.72C2552.29 680 2550.91 672.32 2550.91 663.68C2550.91 649.04 2554.75 636.38 2562.43 625.7C2570.11 615.02 2580.61 606.8 2593.93 601.04C2607.25 595.28 2622.43 592.46 2639.47 592.58C2656.75 592.58 2672.17 595.64 2685.73 601.76C2699.41 607.88 2710.69 616.64 2719.57 628.04C2728.45 639.32 2734.33 652.7 2737.21 668.18L2709.49 673.22C2707.69 661.94 2703.55 652.16 2697.07 643.88C2690.59 635.6 2682.31 629.24 2672.23 624.8C2662.27 620.24 2651.29 617.9 2639.29 617.78C2627.65 617.78 2617.27 619.76 2608.15 623.72C2599.15 627.56 2592.01 632.84 2586.73 639.56C2581.45 646.28 2578.81 653.96 2578.81 662.6C2578.81 671.36 2581.21 678.38 2586.01 683.66C2590.93 688.94 2596.93 693.08 2604.01 696.08C2611.21 699.08 2618.17 701.54 2624.89 703.46L2675.65 718.4C2680.93 719.84 2687.11 721.94 2694.19 724.7C2701.39 727.34 2708.35 731.18 2715.07 736.22C2721.91 741.14 2727.55 747.62 2731.99 755.66C2736.43 763.7 2738.65 773.9 2738.65 786.26C2738.65 798.26 2736.25 809 2731.45 818.48C2726.77 827.96 2720.11 835.94 2711.47 842.42C2702.95 848.9 2692.93 853.82 2681.41 857.18C2670.01 860.66 2657.53 862.4 2643.97 862.4ZM2856.98 862.4C2837.66 862.4 2821.16 858.02 2807.48 849.26C2793.8 840.5 2783.3 828.38 2775.98 812.9C2768.66 797.42 2765 779.66 2765 759.62C2765 739.22 2768.72 721.34 2776.16 705.98C2783.6 690.62 2794.16 678.68 2807.84 670.16C2821.64 661.52 2838.02 657.2 2856.98 657.2C2876.42 657.2 2892.98 661.58 2906.66 670.34C2920.46 678.98 2930.96 691.04 2938.16 706.52C2945.48 721.88 2949.14 739.58 2949.14 759.62C2949.14 780.02 2945.48 797.96 2938.16 813.44C2930.84 828.8 2920.28 840.8 2906.48 849.44C2892.68 858.08 2876.18 862.4 2856.98 862.4ZM2856.98 837.02C2878.58 837.02 2894.66 829.88 2905.22 815.6C2915.78 801.2 2921.06 782.54 2921.06 759.62C2921.06 736.1 2915.72 717.38 2905.04 703.46C2894.48 689.54 2878.46 682.58 2856.98 682.58C2842.46 682.58 2830.46 685.88 2820.98 692.48C2811.62 698.96 2804.6 708.02 2799.92 719.66C2795.36 731.18 2793.08 744.5 2793.08 759.62C2793.08 783.02 2798.48 801.8 2809.28 815.96C2820.08 830 2835.98 837.02 2856.98 837.02ZM3008.11 857V648.2C3008.11 643.16 3008.35 638.18 3008.83 633.26C3009.43 628.34 3010.57 623.66 3012.25 619.22C3013.93 614.66 3016.57 610.46 3020.17 606.62C3024.13 602.3 3028.45 599.18 3033.13 597.26C3037.81 595.22 3042.67 593.9 3047.71 593.3C3052.87 592.7 3057.91 592.4 3062.83 592.4H3087.67V614.72H3064.63C3054.55 614.72 3046.99 617.18 3041.95 622.1C3037.03 627.02 3034.57 634.76 3034.57 645.32V857H3008.11ZM2974.45 685.28V662.6H3087.67V685.28H2974.45ZM3222.31 857C3211.39 859.28 3200.59 860.18 3189.91 859.7C3179.35 859.22 3169.87 856.94 3161.47 852.86C3153.19 848.78 3146.89 842.42 3142.57 833.78C3139.09 826.58 3137.17 819.32 3136.81 812C3136.57 804.56 3136.45 796.1 3136.45 786.62V608.6H3162.73V785.54C3162.73 793.7 3162.79 800.54 3162.91 806.06C3163.15 811.46 3164.41 816.26 3166.69 820.46C3171.01 828.5 3177.85 833.3 3187.21 834.86C3196.69 836.42 3208.39 836.06 3222.31 833.78V857ZM3094.87 685.28V662.6H3222.31V685.28H3094.87ZM3302.01 857L3242.61 662.42L3269.07 662.6L3315.15 813.62L3361.41 662.6H3385.53L3431.79 813.62L3478.23 662.6H3504.51L3445.11 857H3422.07L3373.47 702.2L3325.05 857H3302.01ZM3581.66 862.4C3567.02 862.4 3554.72 859.76 3544.76 854.48C3534.92 849.2 3527.54 842.18 3522.62 833.42C3517.7 824.66 3515.24 815.12 3515.24 804.8C3515.24 794.24 3517.34 785.24 3521.54 777.8C3525.86 770.24 3531.68 764.06 3539 759.26C3546.44 754.46 3555.02 750.8 3564.74 748.28C3574.58 745.88 3585.44 743.78 3597.32 741.98C3609.32 740.06 3621.02 738.44 3632.42 737.12C3643.94 735.68 3654.02 734.3 3662.66 732.98L3653.3 738.74C3653.66 719.54 3649.94 705.32 3642.14 696.08C3634.34 686.84 3620.78 682.22 3601.46 682.22C3588.14 682.22 3576.86 685.22 3567.62 691.22C3558.5 697.22 3552.08 706.7 3548.36 719.66L3522.62 712.1C3527.06 694.7 3536 681.2 3549.44 671.6C3562.88 662 3580.34 657.2 3601.82 657.2C3619.58 657.2 3634.64 660.56 3647 667.28C3659.48 673.88 3668.3 683.48 3673.46 696.08C3675.86 701.72 3677.42 708.02 3678.14 714.98C3678.86 721.94 3679.22 729.02 3679.22 736.22V857H3655.64V808.22L3662.48 811.1C3655.88 827.78 3645.62 840.5 3631.7 849.26C3617.78 858.02 3601.1 862.4 3581.66 862.4ZM3584.72 839.54C3597.08 839.54 3607.88 837.32 3617.12 832.88C3626.36 828.44 3633.8 822.38 3639.44 814.7C3645.08 806.9 3648.74 798.14 3650.42 788.42C3651.86 782.18 3652.64 775.34 3652.76 767.9C3652.88 760.34 3652.94 754.7 3652.94 750.98L3663.02 756.2C3654.02 757.4 3644.24 758.6 3633.68 759.8C3623.24 761 3612.92 762.38 3602.72 763.94C3592.64 765.5 3583.52 767.36 3575.36 769.52C3569.84 771.08 3564.5 773.3 3559.34 776.18C3554.18 778.94 3549.92 782.66 3546.56 787.34C3543.32 792.02 3541.7 797.84 3541.7 804.8C3541.7 810.44 3543.08 815.9 3545.84 821.18C3548.72 826.46 3553.28 830.84 3559.52 834.32C3565.88 837.8 3574.28 839.54 3584.72 839.54ZM3726.08 857V662.6H3749.84V709.4L3745.16 703.28C3747.32 697.52 3750.14 692.24 3753.62 687.44C3757.1 682.52 3760.88 678.5 3764.96 675.38C3770 670.94 3775.88 667.58 3782.6 665.3C3789.32 662.9 3796.1 661.52 3802.94 661.16C3809.78 660.68 3816.02 661.16 3821.66 662.6V687.44C3814.58 685.64 3806.84 685.22 3798.44 686.18C3790.04 687.14 3782.3 690.5 3775.22 696.26C3768.74 701.3 3763.88 707.36 3760.64 714.44C3757.4 721.4 3755.24 728.84 3754.16 736.76C3753.08 744.56 3752.54 752.3 3752.54 759.98V857H3726.08ZM3934.55 862.4C3915.59 862.4 3899.15 858.2 3885.23 849.8C3871.43 841.4 3860.69 829.58 3853.01 814.34C3845.33 799.1 3841.49 781.22 3841.49 760.7C3841.49 739.46 3845.27 721.1 3852.83 705.62C3860.39 690.14 3871.01 678.2 3884.69 669.8C3898.49 661.4 3914.75 657.2 3933.47 657.2C3952.67 657.2 3969.05 661.64 3982.61 670.52C3996.17 679.28 4006.43 691.88 4013.39 708.32C4020.35 724.76 4023.53 744.38 4022.93 767.18H3995.93V757.82C3995.45 732.62 3989.99 713.6 3979.55 700.76C3969.23 687.92 3954.11 681.5 3934.19 681.5C3913.31 681.5 3897.29 688.28 3886.13 701.84C3875.09 715.4 3869.57 734.72 3869.57 759.8C3869.57 784.28 3875.09 803.3 3886.13 816.86C3897.29 830.3 3913.07 837.02 3933.47 837.02C3947.39 837.02 3959.51 833.84 3969.83 827.48C3980.27 821 3988.49 811.7 3994.49 799.58L4019.15 809.12C4011.47 826.04 4000.13 839.18 3985.13 848.54C3970.25 857.78 3953.39 862.4 3934.55 862.4ZM3860.21 767.18V745.04H4008.71V767.18H3860.21ZM4134.94 857V597.8H4296.94V623.18H4161.4V712.82H4275.34V738.2H4161.4V831.62H4296.94V857H4134.94ZM4480.65 857V757.82C4480.65 747.02 4479.63 737.12 4477.59 728.12C4475.55 719 4472.25 711.08 4467.69 704.36C4463.25 697.52 4457.43 692.24 4450.23 688.52C4443.15 684.8 4434.51 682.94 4424.31 682.94C4414.95 682.94 4406.67 684.56 4399.47 687.8C4392.39 691.04 4386.39 695.72 4381.47 701.84C4376.67 707.84 4373.01 715.16 4370.49 723.8C4367.97 732.44 4366.71 742.28 4366.71 753.32L4347.99 749.18C4347.99 729.26 4351.47 712.52 4358.43 698.96C4365.39 685.4 4374.99 675.14 4387.23 668.18C4399.47 661.22 4413.51 657.74 4429.35 657.74C4440.99 657.74 4451.13 659.54 4459.77 663.14C4468.53 666.74 4475.91 671.6 4481.91 677.72C4488.03 683.84 4492.95 690.86 4496.67 698.78C4500.39 706.58 4503.09 714.92 4504.77 723.8C4506.45 732.56 4507.29 741.32 4507.29 750.08V857H4480.65ZM4340.07 857V662.6H4364.01V710.48H4366.71V857H4340.07ZM4631.22 948.8C4621.26 948.8 4611.42 947.3 4601.7 944.3C4592.1 941.42 4583.22 936.8 4575.06 930.44C4566.9 924.2 4560.06 916.04 4554.54 905.96L4578.48 892.64C4583.88 903.44 4591.44 911.18 4601.16 915.86C4611 920.66 4621.02 923.06 4631.22 923.06C4645.26 923.06 4656.6 920.42 4665.24 915.14C4674 909.98 4680.36 902.3 4684.32 892.1C4688.28 881.9 4690.2 869.18 4690.08 853.94V802.1H4693.14V662.6H4716.72V854.3C4716.72 859.82 4716.54 865.1 4716.18 870.14C4715.94 875.3 4715.4 880.34 4714.56 885.26C4712.28 899.78 4707.54 911.72 4700.34 921.08C4693.26 930.44 4683.9 937.4 4672.26 941.96C4660.74 946.52 4647.06 948.8 4631.22 948.8ZM4629.42 862.4C4611.3 862.4 4595.82 857.9 4582.98 848.9C4570.14 839.78 4560.3 827.48 4553.46 812C4546.62 796.52 4543.2 779.06 4543.2 759.62C4543.2 740.3 4546.56 722.9 4553.28 707.42C4560.12 691.94 4569.9 679.7 4582.62 670.7C4595.34 661.7 4610.58 657.2 4628.34 657.2C4646.58 657.2 4661.94 661.64 4674.42 670.52C4686.9 679.4 4696.32 691.58 4702.68 707.06C4709.16 722.42 4712.4 739.94 4712.4 759.62C4712.4 778.94 4709.22 796.4 4702.86 812C4696.5 827.48 4687.14 839.78 4674.78 848.9C4662.42 857.9 4647.3 862.4 4629.42 862.4ZM4632.12 837.74C4645.92 837.74 4657.32 834.38 4666.32 827.66C4675.32 820.94 4682.04 811.7 4686.48 799.94C4690.92 788.06 4693.14 774.62 4693.14 759.62C4693.14 744.38 4690.92 730.94 4686.48 719.3C4682.04 707.54 4675.32 698.36 4666.32 691.76C4657.44 685.16 4646.22 681.86 4632.66 681.86C4618.74 681.86 4607.22 685.28 4598.1 692.12C4588.98 698.96 4582.2 708.26 4577.76 720.02C4573.44 731.78 4571.28 744.98 4571.28 759.62C4571.28 774.38 4573.5 787.7 4577.94 799.58C4582.5 811.34 4589.28 820.64 4598.28 827.48C4607.28 834.32 4618.56 837.74 4632.12 837.74ZM4770.65 625.7V596H4797.11V625.7H4770.65ZM4770.65 857V662.6H4797.11V857H4770.65ZM4991.48 857V757.82C4991.48 747.02 4990.46 737.12 4988.42 728.12C4986.38 719 4983.08 711.08 4978.52 704.36C4974.08 697.52 4968.26 692.24 4961.06 688.52C4953.98 684.8 4945.34 682.94 4935.14 682.94C4925.78 682.94 4917.5 684.56 4910.3 687.8C4903.22 691.04 4897.22 695.72 4892.3 701.84C4887.5 707.84 4883.84 715.16 4881.32 723.8C4878.8 732.44 4877.54 742.28 4877.54 753.32L4858.82 749.18C4858.82 729.26 4862.3 712.52 4869.26 698.96C4876.22 685.4 4885.82 675.14 4898.06 668.18C4910.3 661.22 4924.34 657.74 4940.18 657.74C4951.82 657.74 4961.96 659.54 4970.6 663.14C4979.36 666.74 4986.74 671.6 4992.74 677.72C4998.86 683.84 5003.78 690.86 5007.5 698.78C5011.22 706.58 5013.92 714.92 5015.6 723.8C5017.28 732.56 5018.12 741.32 5018.12 750.08V857H4991.48ZM4850.9 857V662.6H4874.84V710.48H4877.54V857H4850.9ZM5146.03 862.4C5127.07 862.4 5110.63 858.2 5096.71 849.8C5082.91 841.4 5072.17 829.58 5064.49 814.34C5056.81 799.1 5052.97 781.22 5052.97 760.7C5052.97 739.46 5056.75 721.1 5064.31 705.62C5071.87 690.14 5082.49 678.2 5096.17 669.8C5109.97 661.4 5126.23 657.2 5144.95 657.2C5164.15 657.2 5180.53 661.64 5194.09 670.52C5207.65 679.28 5217.91 691.88 5224.87 708.32C5231.83 724.76 5235.01 744.38 5234.41 767.18H5207.41V757.82C5206.93 732.62 5201.47 713.6 5191.03 700.76C5180.71 687.92 5165.59 681.5 5145.67 681.5C5124.79 681.5 5108.77 688.28 5097.61 701.84C5086.57 715.4 5081.05 734.72 5081.05 759.8C5081.05 784.28 5086.57 803.3 5097.61 816.86C5108.77 830.3 5124.55 837.02 5144.95 837.02C5158.87 837.02 5170.99 833.84 5181.31 827.48C5191.75 821 5199.97 811.7 5205.97 799.58L5230.63 809.12C5222.95 826.04 5211.61 839.18 5196.61 848.54C5181.73 857.78 5164.87 862.4 5146.03 862.4ZM5071.69 767.18V745.04H5220.19V767.18H5071.69ZM5356.62 862.4C5337.66 862.4 5321.22 858.2 5307.3 849.8C5293.5 841.4 5282.76 829.58 5275.08 814.34C5267.4 799.1 5263.56 781.22 5263.56 760.7C5263.56 739.46 5267.34 721.1 5274.9 705.62C5282.46 690.14 5293.08 678.2 5306.76 669.8C5320.56 661.4 5336.82 657.2 5355.54 657.2C5374.74 657.2 5391.12 661.64 5404.68 670.52C5418.24 679.28 5428.5 691.88 5435.46 708.32C5442.42 724.76 5445.6 744.38 5445 767.18H5418V757.82C5417.52 732.62 5412.06 713.6 5401.62 700.76C5391.3 687.92 5376.18 681.5 5356.26 681.5C5335.38 681.5 5319.36 688.28 5308.2 701.84C5297.16 715.4 5291.64 734.72 5291.64 759.8C5291.64 784.28 5297.16 803.3 5308.2 816.86C5319.36 830.3 5335.14 837.02 5355.54 837.02C5369.46 837.02 5381.58 833.84 5391.9 827.48C5402.34 821 5410.56 811.7 5416.56 799.58L5441.22 809.12C5433.54 826.04 5422.2 839.18 5407.2 848.54C5392.32 857.78 5375.46 862.4 5356.62 862.4ZM5282.28 767.18V745.04H5430.78V767.18H5282.28ZM5484.94 857V662.6H5508.7V709.4L5504.02 703.28C5506.18 697.52 5509 692.24 5512.48 687.44C5515.96 682.52 5519.74 678.5 5523.82 675.38C5528.86 670.94 5534.74 667.58 5541.46 665.3C5548.18 662.9 5554.96 661.52 5561.8 661.16C5568.64 660.68 5574.88 661.16 5580.52 662.6V687.44C5573.44 685.64 5565.7 685.22 5557.3 686.18C5548.9 687.14 5541.16 690.5 5534.08 696.26C5527.6 701.3 5522.74 707.36 5519.5 714.44C5516.26 721.4 5514.1 728.84 5513.02 736.76C5511.94 744.56 5511.4 752.3 5511.4 759.98V857H5484.94Z" fill="#F7F7F7"/>
<g clip-path="url(#clip1_863_642)">
<rect width="1000" height="1000" rx="250" fill="#F7F7F7"/>
<ellipse cx="787" cy="1044.5" rx="200" ry="160.5" fill="#ED53BA"/>
<ellipse cx="472" cy="1031" rx="250" ry="237" fill="#6F55F2"/>
<circle cx="72" cy="1067" r="400" fill="#26A9C7"/>
<path d="M111.718 813V781.2H118.918C124.918 781.2 131.118 780.2 137.518 778.2C144.318 776.6 149.918 773 154.318 767.4C159.118 761.8 161.518 753.4 161.518 742.2V421.2C161.518 408.8 159.718 399.8 156.118 394.2C152.518 388.2 147.718 384.2 141.718 382.2C135.718 380.2 128.918 379.2 121.318 379.2H117.118V347.4H234.718L245.518 394.2H247.918C256.718 378.6 268.318 366 282.718 356.4C297.518 346.4 316.518 341.4 339.718 341.4C379.718 341.4 410.118 354.8 430.918 381.6C452.118 408.4 462.718 451 462.718 509.4C462.718 567.4 452.318 609.8 431.518 636.6C411.118 663 381.318 676.2 342.118 676.2C319.318 676.2 300.718 672 286.318 663.6C272.318 654.8 260.918 643 252.118 628.2H247.918C248.718 633.8 249.518 641.4 250.318 651C251.118 660.2 251.718 669.2 252.118 678C252.518 687.2 252.718 694.8 252.718 700.8V742.2C252.718 753.4 254.918 761.8 259.318 767.4C264.118 773 269.918 776.6 276.718 778.2C283.518 780.2 289.718 781.2 295.318 781.2H308.518V813H111.718ZM313.918 631.8C327.518 631.8 338.318 627.4 346.318 618.6C354.718 609.4 360.718 595.8 364.318 577.8C368.318 559.8 370.318 537.2 370.318 510C370.318 483.2 368.318 460.8 364.318 442.8C360.718 424.4 354.718 410.4 346.318 400.8C338.318 391.2 327.718 386.4 314.518 386.4C298.518 386.4 285.918 391.2 276.718 400.8C267.918 410 261.718 423.8 258.118 442.2C254.518 460.6 252.718 483 252.718 509.4C252.718 537 254.518 560 258.118 578.4C261.718 596.4 267.918 609.8 276.718 618.6C285.918 627.4 298.318 631.8 313.918 631.8ZM506.837 669V637.2H514.037C520.037 637.2 526.237 636.4 532.637 634.8C539.437 632.8 545.037 629 549.437 623.4C554.237 617.8 556.637 609.4 556.637 598.2V281.4C556.637 270.6 554.237 262.6 549.437 257.4C544.637 252.2 538.837 248.8 532.037 247.2C525.637 245.6 519.637 244.8 514.037 244.8H506.837V213H647.837V444.6C647.837 449.8 647.637 456 647.237 463.2C646.837 470.4 646.437 477.4 646.037 484.2C646.037 490.6 645.837 496 645.437 500.4C645.037 504.8 644.837 507 644.837 507L720.437 422.4C724.837 417.2 728.237 413 730.637 409.8C733.037 406.2 734.637 403.2 735.437 400.8C736.237 398 736.637 395.6 736.637 393.6C736.637 388.4 733.837 384.4 728.237 381.6C723.037 378.8 715.437 377.4 705.437 377.4V347.4H856.637V377.4C849.837 377.4 843.037 378.4 836.237 380.4C829.437 382.4 822.637 385.6 815.837 390C809.037 394 802.037 399.2 794.837 405.6C787.637 412 780.037 419.6 772.037 428.4L734.237 471.6L814.037 590.4C821.237 600.8 828.237 609.6 835.037 616.8C842.237 623.6 849.237 628.8 856.037 632.4C863.237 635.6 870.037 637.2 876.437 637.2H878.237V669H869.837C847.837 669 829.237 668.6 814.037 667.8C799.237 666.6 786.637 664.4 776.237 661.2C765.837 657.6 756.637 652.2 748.637 645C741.037 637.8 733.237 628 725.237 615.6L671.837 531.6L647.837 549.6V598.2C647.837 609.4 650.037 617.8 654.437 623.4C659.237 629 665.037 632.8 671.837 634.8C678.637 636.4 684.837 637.2 690.437 637.2H697.637V669H506.837Z" fill="#191B1C"/>
</g>
</g>
<defs>
<clipPath id="clip0_863_642">
<rect width="5590" height="1000" fill="white"/>
</clipPath>
<clipPath id="clip1_863_642">
<rect width="1000" height="1000" rx="250" fill="white"/>
</clipPath>
</defs>
</svg>
